<?xml version="1.0" encoding="utf-8"?>
<!-- Generator: Adobe Illustrator 27.0.0, SVG Export Plug-In . SVG Version: 6.00 Build 0)  -->
<svg version="1.1" id="Layer_1" xmlns="http://www.w3.org/2000/svg" xmlns:xlink="http://www.w3.org/1999/xlink" x="0px" y="0px"
	 viewBox="0 0 500 98.9" style="enable-background:new 0 0 500 98.9;" xml:space="preserve">
<style type="text/css">
	.st0{clip-path:url(#SVGID_00000102521256337455758430000004013523851189824642_);}
	.st1{clip-path:url(#SVGID_00000094601700574445813630000007592344083239843996_);}
	.st2{fill:#5E17EB;}
	.st3{clip-path:url(#SVGID_00000096038196508736056420000009264681315528681867_);}
	.st4{clip-path:url(#SVGID_00000077285255433848970340000012458894938375848894_);}
	.st5{fill:#FFFFFF;}
	.st6{clip-path:url(#SVGID_00000162321312850050434500000010126780151483963058_);}
	.st7{clip-path:url(#SVGID_00000096768162848880115060000009718580352030297257_);}
	.st8{fill:none;stroke:#5E17EB;stroke-width:10;stroke-miterlimit:4.4964;}
	.st9{clip-path:url(#SVGID_00000023966974871257483470000016292332642050485919_);}
	.st10{fill:#5F17EB;}
</style>
<g>
	<defs>
		<rect id="SVGID_1_" x="59.7" width="440.3" height="98.8"/>
	</defs>
	<clipPath id="SVGID_00000020398900171801404230000016320300377840582554_">
		<use xlink:href="#SVGID_1_"  style="overflow:visible;"/>
	</clipPath>
	<g style="clip-path:url(#SVGID_00000020398900171801404230000016320300377840582554_);">
		<g>
			<defs>
				<path id="SVGID_00000165956339777215897880000005752333683548913285_" d="M109,0h341.6C477.9,0,500,22.1,500,49.4
					s-22.1,49.4-49.4,49.4H109c-27.3,0-49.4-22.1-49.4-49.4S81.8,0,109,0z"/>
			</defs>
			<clipPath id="SVGID_00000087404192247664987360000003270776431100646813_">
				<use xlink:href="#SVGID_00000165956339777215897880000005752333683548913285_"  style="overflow:visible;"/>
			</clipPath>
			<g style="clip-path:url(#SVGID_00000087404192247664987360000003270776431100646813_);">
				<path class="st2" d="M59.7,0h440.3v98.8H59.7V0z"/>
			</g>
		</g>
	</g>
</g>
<g>
	<defs>
		<rect id="SVGID_00000107585561685510078920000001706003514295703178_" width="174.4" height="98.8"/>
	</defs>
	<clipPath id="SVGID_00000136385704814460175480000002521158373322757003_">
		<use xlink:href="#SVGID_00000107585561685510078920000001706003514295703178_"  style="overflow:visible;"/>
	</clipPath>
	<g style="clip-path:url(#SVGID_00000136385704814460175480000002521158373322757003_);">
		<g>
			<defs>
				<path id="SVGID_00000051356098275959068960000013389718757268902841_" d="M49.4,0H125c13.1,0,25.7,5.2,34.9,14.5
					c9.3,9.3,14.5,21.8,14.5,34.9s-5.2,25.7-14.5,34.9c-9.3,9.3-21.8,14.5-34.9,14.5H49.4c-13.1,0-25.7-5.2-34.9-14.5
					C5.2,75.1,0,62.5,0,49.4s5.2-25.7,14.5-34.9C23.7,5.2,36.3,0,49.4,0z"/>
			</defs>
			<clipPath id="SVGID_00000162336837893052403220000007828760958203395501_">
				<use xlink:href="#SVGID_00000051356098275959068960000013389718757268902841_"  style="overflow:visible;"/>
			</clipPath>
			<g style="clip-path:url(#SVGID_00000162336837893052403220000007828760958203395501_);">
				<path class="st5" d="M0,0h174.4v98.8H0V0z"/>
			</g>
		</g>
	</g>
</g>
<g>
	<defs>
		<rect id="SVGID_00000161619137144773938250000012459973369216867457_" x="0" width="174.2" height="98.9"/>
	</defs>
	<clipPath id="SVGID_00000072245810258629231050000004356055775739214497_">
		<use xlink:href="#SVGID_00000161619137144773938250000012459973369216867457_"  style="overflow:visible;"/>
	</clipPath>
	<g style="clip-path:url(#SVGID_00000072245810258629231050000004356055775739214497_);">
		<g>
			<defs>
				<path id="SVGID_00000176723327565579502400000004615502629324562085_" d="M49.4,0H125c13.1,0,25.7,5.2,34.9,14.5
					c9.3,9.3,14.5,21.8,14.5,34.9c0,13.1-5.2,25.7-14.5,34.9c-9.3,9.3-21.8,14.5-34.9,14.5H49.4c-13.1,0-25.7-5.2-34.9-14.5
					S0,62.5,0,49.4c0-13.1,5.2-25.7,14.5-34.9S36.3,0,49.4,0z"/>
			</defs>
			<clipPath id="SVGID_00000075880851135746988590000016252224098313485491_">
				<use xlink:href="#SVGID_00000176723327565579502400000004615502629324562085_"  style="overflow:visible;"/>
			</clipPath>
			<g style="clip-path:url(#SVGID_00000075880851135746988590000016252224098313485491_);">
				<path class="st8" d="M49.4,0H125c13.1,0,25.7,5.2,34.9,14.5c9.3,9.3,14.5,21.8,14.5,34.9c0,13.1-5.2,25.7-14.5,34.9
					c-9.3,9.3-21.8,14.5-34.9,14.5H49.4c-13.1,0-25.7-5.2-34.9-14.5S0,62.5,0,49.4c0-13.1,5.2-25.7,14.5-34.9S36.3,0,49.4,0z"/>
			</g>
		</g>
	</g>
</g>
<g>
	<defs>
		<rect id="SVGID_00000113311893684339552970000010979329739129976476_" x="135.3" width="196.7" height="98.3"/>
	</defs>
	<clipPath id="SVGID_00000180351582721132913270000014222619902153209789_">
		<use xlink:href="#SVGID_00000113311893684339552970000010979329739129976476_"  style="overflow:visible;"/>
	</clipPath>
	<g style="clip-path:url(#SVGID_00000180351582721132913270000014222619902153209789_);">
		<path class="st2" d="M135.3,0H332v98.3H135.3V0z"/>
	</g>
</g>
<g>
	<g transform="translate(92.482525, 211.557335)">
	</g>
</g>
<g>
	<g transform="translate(105.311776, 211.557335)">
		<g>
			<path class="st5" d="M64.7-135c-3.8,0-7.4-0.7-10.7-2.1c-3.3-1.4-6.1-3.3-8.5-5.8c-2.4-2.4-4.3-5.3-5.7-8.6
				c-1.4-3.3-2-6.9-2-10.7s0.7-7.4,2-10.7c1.4-3.3,3.3-6.2,5.7-8.6c2.4-2.4,5.3-4.4,8.5-5.7c3.3-1.4,6.8-2.1,10.7-2.1
				c3.8,0,7.3,0.7,10.6,2.1c3.3,1.4,6.1,3.3,8.5,5.7c2.4,2.4,4.3,5.3,5.7,8.6c1.4,3.3,2.1,6.9,2.1,10.7s-0.7,7.4-2.1,10.7
				s-3.3,6.2-5.7,8.6c-2.4,2.4-5.2,4.3-8.5,5.8C72-135.7,68.5-135,64.7-135z M64.7-146c2.2,0,4.2-0.4,6-1.2c1.8-0.8,3.4-1.9,4.7-3.4
				c1.3-1.5,2.4-3.2,3.1-5.1c0.8-2,1.1-4.1,1.1-6.4c0-2.3-0.4-4.4-1.1-6.4c-0.8-2-1.8-3.7-3.1-5.1c-1.3-1.4-2.9-2.6-4.7-3.4
				c-1.8-0.8-3.8-1.2-6-1.2c-2.2,0-4.2,0.4-6,1.2c-1.8,0.8-3.4,2-4.7,3.4c-1.3,1.4-2.4,3.1-3.1,5.1c-0.8,2-1.1,4.1-1.1,6.4
				c0,2.3,0.4,4.4,1.1,6.4c0.8,2,1.8,3.7,3.1,5.1c1.3,1.4,2.9,2.5,4.7,3.4C60.5-146.4,62.5-146,64.7-146z"/>
		</g>
	</g>
</g>
<g>
	<g transform="translate(149.742298, 211.557335)">
		<g>
			<path class="st5" d="M55.7-188.1h20.6c3.9,0,7.5,0.7,10.8,2c3.3,1.3,6.1,3.1,8.5,5.4c2.4,2.3,4.3,5.1,5.7,8.2
				c1.4,3.2,2.1,6.6,2.1,10.4c0,3.7-0.7,7.2-2.1,10.3c-1.4,3.2-3.3,5.9-5.7,8.2c-2.4,2.3-5.2,4.2-8.5,5.5c-3.3,1.3-6.9,2-10.8,2
				H55.7V-188.1z M76.4-146.7c2.2,0,4.2-0.4,6-1.2c1.8-0.8,3.4-1.9,4.8-3.2c1.3-1.4,2.4-3,3.1-4.9c0.8-1.9,1.1-3.9,1.1-6.1
				c0-2.2-0.4-4.3-1.1-6.1c-0.8-1.9-1.8-3.5-3.1-4.9c-1.3-1.4-2.9-2.4-4.8-3.2c-1.8-0.8-3.8-1.2-6-1.2h-9.3v30.8H76.4z"/>
		</g>
	</g>
</g>
<g>
	<g transform="translate(191.898804, 211.557335)">
		<g>
			<path class="st5" d="M93.6-135c-3.8,0-7.4-0.7-10.7-2.1c-3.3-1.4-6.1-3.3-8.5-5.8c-2.4-2.4-4.3-5.3-5.7-8.6
				c-1.4-3.3-2-6.9-2-10.7s0.7-7.4,2-10.7c1.4-3.3,3.3-6.2,5.7-8.6c2.4-2.4,5.3-4.4,8.5-5.7c3.3-1.4,6.8-2.1,10.7-2.1
				c3.8,0,7.3,0.7,10.6,2.1s6.1,3.3,8.5,5.7c2.4,2.4,4.3,5.3,5.7,8.6c1.4,3.3,2.1,6.9,2.1,10.7s-0.7,7.4-2.1,10.7s-3.3,6.2-5.7,8.6
				c-2.4,2.4-5.2,4.3-8.5,5.8C100.9-135.7,97.4-135,93.6-135z M93.6-146c2.2,0,4.2-0.4,6-1.2c1.8-0.8,3.4-1.9,4.7-3.4
				c1.3-1.5,2.4-3.2,3.1-5.1c0.8-2,1.1-4.1,1.1-6.4c0-2.3-0.4-4.4-1.1-6.4c-0.8-2-1.8-3.7-3.1-5.1c-1.3-1.4-2.9-2.6-4.7-3.4
				c-1.8-0.8-3.8-1.2-6-1.2c-2.2,0-4.2,0.4-6,1.2c-1.8,0.8-3.4,2-4.7,3.4c-1.3,1.4-2.4,3.1-3.1,5.1c-0.8,2-1.1,4.1-1.1,6.4
				c0,2.3,0.4,4.4,1.1,6.4c0.8,2,1.8,3.7,3.1,5.1c1.3,1.4,2.9,2.5,4.7,3.4C89.4-146.4,91.4-146,93.6-146z"/>
		</g>
	</g>
</g>
<g>
	<g transform="translate(236.329327, 211.557335)">
		<g>
			<path class="st5" d="M79.2-188.1H91l11.4,31l11.5-31h11.7l-20.2,53h-6L79.2-188.1z"/>
		</g>
	</g>
</g>
<g>
	<g transform="translate(271.663826, 211.557335)">
		<g>
			<path class="st5" d="M96.4-188.1h11.4v52.1H96.4V-188.1z"/>
		</g>
	</g>
</g>
<g>
	<g transform="translate(288.922923, 211.557335)">
		<g>
			<path class="st5" d="M116.1-134.7c-4,0-7.7-0.9-10.9-2.7c-3.2-1.8-5.8-4.4-7.8-7.9l7.9-6.6c2.7,4.8,6.2,7.2,10.6,7.2
				c2,0,3.6-0.5,4.8-1.4c1.2-1,1.8-2.2,1.8-3.8c0-1.4-0.6-2.7-1.8-3.8c-1.2-1.1-3.3-2.3-6.4-3.6c-4.8-2.1-8.4-4.5-10.6-7.1
				c-2.2-2.6-3.3-5.8-3.3-9.4c0-2.3,0.4-4.4,1.2-6.3c0.8-1.9,2-3.6,3.5-4.9c1.5-1.4,3.3-2.4,5.4-3.2c2.1-0.8,4.4-1.1,6.9-1.1
				c6.6,0,12.2,2.8,16.7,8.5l-7.5,6.9c-1.4-1.9-2.9-3.3-4.4-4.2c-1.4-0.9-3.1-1.4-4.8-1.4c-1.7,0-3.1,0.4-4.1,1.3
				c-1,0.8-1.5,2-1.5,3.4c0,1.6,0.7,2.9,2,4c1.3,1,3.4,2.1,6.1,3.3c4.9,2.2,8.5,4.6,10.7,7.3c2.2,2.7,3.3,5.8,3.3,9.5
				c0,2.4-0.4,4.6-1.3,6.5c-0.9,2-2.1,3.7-3.6,5.1c-1.6,1.4-3.4,2.5-5.6,3.3C121.2-135.1,118.8-134.7,116.1-134.7z"/>
		</g>
	</g>
</g>
<g>
	<g transform="translate(319.417885, 211.557335)">
		<g>
			<path class="st5" d="M127.8-189.1h7.2l20.5,53h-12l-3.2-8.8h-18l-3.1,8.8h-12.1L127.8-189.1z M136.9-154.6l-5.4-15.3l-5.5,15.3
				H136.9z"/>
		</g>
	</g>
</g>
<path class="st10" d="M111.8,43.1l-4.9,6.9l-4,5.6l-5.2,7.3H126L111.8,43.1z"/>
<path class="st10" d="M44.6,50l-4.9-6.8L25.6,62.9h28.3l-5.2-7.3L44.6,50z"/>
<path class="st10" d="M106,35.5L95.5,20.8l-7.8,10.8l-12,16.7l-12-16.7L56,20.8L45.5,35.5l7.8,10.8l6.7,9.4l5.2,7.3l10.5,14.6
	l10.5-14.6l5.2-7.3l6.8-9.4L106,35.5z"/>
</svg>
