<svg xmlns="http://www.w3.org/2000/svg" xmlns:xlink="http://www.w3.org/1999/xlink" width="500" zoomAndPan="magnify" viewBox="0 0 375 374.999991" height="500" preserveAspectRatio="xMidYMid meet" version="1.0"><defs><clipPath id="e7f471d558"><path d="M 75 0 L 300 0 C 341.421875 0 375 33.578125 375 75 L 375 300 C 375 341.421875 341.421875 375 300 375 L 75 375 C 33.578125 375 0 341.421875 0 300 L 0 75 C 0 33.578125 33.578125 0 75 0 Z M 75 0 " clip-rule="nonzero"/></clipPath></defs><g clip-path="url(#e7f471d558)"><rect x="-37.5" width="450" fill="#5f17eb" y="-37.499999" height="449.999989" fill-opacity="1"/></g><path fill="#ffffff" d="M 305.386719 167.703125 L 289.277344 190.054688 L 276.117188 208.289062 L 259.023438 232.011719 L 351.753906 232.011719 Z M 305.386719 167.703125 " fill-opacity="1" fill-rule="nonzero"/><path fill="#ffffff" d="M 85.945312 190.054688 L 69.835938 167.898438 L 23.667969 232.011719 L 116.199219 232.011719 L 99.105469 208.289062 Z M 85.945312 190.054688 " fill-opacity="1" fill-rule="nonzero"/><path fill="#ffffff" d="M 286.527344 142.605469 L 252.148438 94.964844 L 226.804688 130.253906 L 187.710938 184.566406 L 148.417969 130.253906 L 123.074219 94.964844 L 88.890625 142.605469 L 114.234375 177.703125 L 136.238281 208.289062 L 153.328125 232.011719 L 187.710938 279.65625 L 221.894531 232.011719 L 238.984375 208.289062 L 261.183594 177.703125 Z M 286.527344 142.605469 " fill-opacity="1" fill-rule="nonzero"/></svg>